<svg width="816" height="143" viewBox="0 0 816 143" fill="none" xmlns="http://www.w3.org/2000/svg">
<path fill-rule="evenodd" clip-rule="evenodd" d="M0 52.5188C0 62.2368 0 67.0957 3.12685 69.7886C6.2537 72.4815 11.0589 71.761 20.6694 70.3198L27.2 69.3405C54.4 65.2616 108.8 57.1039 163.2 77.4982C217.6 97.8925 272 146.839 326.4 142.76C380.8 138.681 435.2 81.577 489.6 57.1039C544 32.6308 598.4 40.7885 652.8 48.9462C707.2 57.1039 761.6 65.2616 788.8 69.3405L795.331 70.3198C804.941 71.761 809.746 72.4815 812.873 69.7886C816 67.0957 816 62.2368 816 52.5188V18C816 9.51472 816 5.27208 813.364 2.63604C810.728 0 806.485 0 798 0H788.8C761.6 0 707.2 0 652.8 0C598.4 0 544 0 489.6 0C435.2 0 380.8 0 326.4 0C272 0 217.6 0 163.2 0C108.8 0 54.4 0 27.2 0H18C9.51472 0 5.27208 0 2.63604 2.63604C0 5.27208 0 9.51472 0 18V52.5188Z" fill="url(#paint0_linear_1_23)"/>
<defs>
<linearGradient id="paint0_linear_1_23" x1="408" y1="53" x2="408" y2="172" gradientUnits="userSpaceOnUse">
<stop stop-color="#0085FF"/>
<stop offset="1" stop-color="#00C2FF"/>
</linearGradient>
</defs>
</svg>
